<svg width="118" height="118" viewBox="0 0 118 118" fill="none" xmlns="http://www.w3.org/2000/svg">
<path d="M116.01 2.01112C104.123 2.01112 93.3786 1.59302 82.0143 5.88411C62.3183 13.3212 48.6413 22.0133 36.5425 39.1631C32.1075 45.4497 23.1804 57.3151 32.9564 62.9748C38.1644 65.99 49.6035 69.6439 54.0427 63.4052C68.6195 42.9188 27.4517 45.6479 18.3251 51.7862C-4.00841 66.807 -2.49166 92.6191 17.1776 107.873C18.5672 108.951 27.5903 115.717 26.5014 115.475C20.8553 114.221 13.0828 110.925 7.63853 114.328C-0.393126 119.348 16.5072 106.857 18.4685 105.363C22.3135 102.433 25.6408 95.4934 25.6408 103.354C25.6408 107.402 27.3782 114.539 23.0588 115.619" stroke="black" stroke-width="3" stroke-linecap="round"/>
<path d="M12.9376 111.422C15.5489 111.422 18.1186 111.849 20.7125 111.849C21.4245 111.849 22.3372 111.991 23.0319 111.837C23.2368 111.791 23.3704 111.507 23.3751 111.328C23.4149 109.816 23.4254 108.315 23.6946 106.819C23.8085 106.186 24.8122 103.472 23.6828 103.849C22.8584 104.124 22.3456 104.564 21.6118 105.044C20.1618 105.992 18.5062 106.538 17.0321 107.423C16.5427 107.716 14.6619 109.931 14.902 109.931C16.6571 109.931 18.1048 110.18 19.5882 109.245C20.2753 108.812 20.8687 108.261 21.5408 107.813C22.0939 107.444 20.9722 107.588 20.819 107.588" stroke="black" stroke-width="3" stroke-linecap="round"/>
</svg>
