<svg width="24" height="24" viewBox="0 0 24 24" fill="none" xmlns="http://www.w3.org/2000/svg">
<path d="M19.91 15.51H15.38C15.1148 15.51 14.8604 15.6154 14.6729 15.8029C14.4854 15.9904 14.38 16.2448 14.38 16.51C14.38 16.7752 14.4854 17.0296 14.6729 17.2171C14.8604 17.4046 15.1148 17.51 15.38 17.51H17.78C16.6769 18.6627 15.2544 19.4593 13.6952 19.7974C12.1359 20.1355 10.5112 19.9996 9.02978 19.4072C7.54834 18.8149 6.27787 17.7931 5.38159 16.4732C4.48531 15.1532 4.00418 13.5955 4 12C4 11.7348 3.89464 11.4804 3.70711 11.2929C3.51957 11.1054 3.26522 11 3 11C2.73478 11 2.48043 11.1054 2.29289 11.2929C2.10536 11.4804 2 11.7348 2 12C2.00529 13.9528 2.58222 15.8613 3.6596 17.49C4.73699 19.1187 6.26767 20.3964 8.06274 21.1652C9.85782 21.9341 11.8387 22.1605 13.761 21.8166C15.6833 21.4727 17.4628 20.5735 18.88 19.23V21C18.88 21.2652 18.9854 21.5196 19.1729 21.7071C19.3604 21.8946 19.6148 22 19.88 22C20.1452 22 20.3996 21.8946 20.5871 21.7071C20.7746 21.5196 20.88 21.2652 20.88 21V16.5C20.8775 16.2416 20.7752 15.9943 20.5943 15.8097C20.4135 15.6251 20.1683 15.5177 19.91 15.51ZM12 2C9.43639 2.00731 6.97349 2.99891 5.12 4.77V3C5.12 2.73478 5.01464 2.48043 4.82711 2.29289C4.63957 2.10536 4.38522 2 4.12 2C3.85478 2 3.60043 2.10536 3.41289 2.29289C3.22536 2.48043 3.12 2.73478 3.12 3V7.5C3.12 7.76522 3.22536 8.01957 3.41289 8.20711C3.60043 8.39464 3.85478 8.5 4.12 8.5H8.62C8.88522 8.5 9.13957 8.39464 9.32711 8.20711C9.51464 8.01957 9.62 7.76522 9.62 7.5C9.62 7.23478 9.51464 6.98043 9.32711 6.79289C9.13957 6.60536 8.88522 6.5 8.62 6.5H6.22C7.32247 5.34787 8.74409 4.5515 10.3024 4.21311C11.8607 3.87472 13.4846 4.00975 14.9656 4.60086C16.4466 5.19198 17.7172 6.21221 18.6142 7.5306C19.5113 8.849 19.9938 10.4054 20 12C20 12.2652 20.1054 12.5196 20.2929 12.7071C20.4804 12.8946 20.7348 13 21 13C21.2652 13 21.5196 12.8946 21.7071 12.7071C21.8946 12.5196 22 12.2652 22 12C22 10.6868 21.7413 9.38642 21.2388 8.17317C20.7362 6.95991 19.9997 5.85752 19.0711 4.92893C18.1425 4.00035 17.0401 3.26375 15.8268 2.7612C14.6136 2.25866 13.3132 2 12 2V2Z" fill="black"/>
<path d="M11.3492 15.0158C11.3097 15.0594 11.273 15.1053 11.2392 15.1533C11.2045 15.2044 11.1767 15.2599 11.1567 15.3183C11.1302 15.3703 11.1117 15.4259 11.1017 15.4833C11.0972 15.5444 11.0972 15.6056 11.1017 15.6667C11.0986 15.7869 11.1237 15.9062 11.175 16.015C11.2162 16.1288 11.2819 16.2321 11.3674 16.3176C11.4529 16.4031 11.5562 16.4688 11.67 16.51C11.7797 16.5585 11.8984 16.5835 12.0183 16.5835C12.1383 16.5835 12.2569 16.5585 12.3667 16.51C12.4804 16.4688 12.5837 16.4031 12.6693 16.3176C12.7548 16.2321 12.8205 16.1288 12.8617 16.015C12.9024 15.9035 12.9211 15.7852 12.9167 15.6667C12.9174 15.546 12.8942 15.4264 12.8486 15.3148C12.803 15.2031 12.7358 15.1015 12.6508 15.0158C12.5656 14.9299 12.4642 14.8617 12.3525 14.8152C12.2408 14.7686 12.121 14.7447 12 14.7447C11.879 14.7447 11.7592 14.7686 11.6475 14.8152C11.5358 14.8617 11.4344 14.9299 11.3492 15.0158ZM12 7.41667C11.517 7.41636 11.0424 7.54328 10.624 7.78466C10.2056 8.02603 9.85818 8.37335 9.61667 8.79167C9.55034 8.896 9.50581 9.01267 9.48574 9.13466C9.46568 9.25665 9.4705 9.38144 9.49991 9.50152C9.52932 9.6216 9.58272 9.73449 9.6569 9.8334C9.73107 9.93231 9.82448 10.0152 9.93152 10.0771C10.0386 10.1389 10.157 10.1785 10.2797 10.1934C10.4025 10.2083 10.5269 10.1982 10.6457 10.1638C10.7644 10.1294 10.8749 10.0712 10.9706 9.99298C11.0663 9.9147 11.1452 9.81788 11.2025 9.70833C11.2833 9.56845 11.3996 9.45238 11.5396 9.3719C11.6796 9.29141 11.8385 9.24936 12 9.25C12.2431 9.25 12.4763 9.34658 12.6482 9.51849C12.8201 9.69039 12.9167 9.92355 12.9167 10.1667C12.9167 10.4098 12.8201 10.6429 12.6482 10.8148C12.4763 10.9868 12.2431 11.0833 12 11.0833C11.7569 11.0833 11.5237 11.1799 11.3518 11.3518C11.1799 11.5237 11.0833 11.7569 11.0833 12V12.9167C11.0833 13.1598 11.1799 13.3929 11.3518 13.5648C11.5237 13.7368 11.7569 13.8333 12 13.8333C12.2431 13.8333 12.4763 13.7368 12.6482 13.5648C12.8201 13.3929 12.9167 13.1598 12.9167 12.9167V12.7517C13.5229 12.5317 14.0326 12.1056 14.3565 11.548C14.6805 10.9903 14.7982 10.3365 14.6889 9.7009C14.5797 9.06528 14.2506 8.48827 13.7591 8.07072C13.2676 7.65318 12.6449 7.42167 12 7.41667Z" fill="black"/>
</svg>
