<svg width="442" height="13" viewBox="0 0 442 13" fill="none" xmlns="http://www.w3.org/2000/svg">
<path d="M440.996 6.5C441.067 8.33333 440.288 12 436.6 12C432.912 12 432.133 8.33333 432.204 6.5" stroke="#FDDE94" stroke-width="2" stroke-linecap="round"/>
<path d="M423.404 6.50001C423.333 4.66668 424.112 1.00001 427.8 1.00001C431.488 1.00001 432.267 4.66668 432.196 6.50001" stroke="#FDDE94" stroke-width="2" stroke-linecap="round"/>
<path d="M423.396 6.5C423.467 8.33333 422.688 12 419 12C415.312 12 414.533 8.33333 414.604 6.5" stroke="#FDDE94" stroke-width="2" stroke-linecap="round"/>
<path d="M405.804 6.50001C405.733 4.66668 406.512 1.00001 410.2 1.00001C413.888 1.00001 414.667 4.66668 414.596 6.50001" stroke="#FDDE94" stroke-width="2" stroke-linecap="round"/>
<path d="M405.796 6.49999C405.867 8.33332 405.088 12 401.4 12C397.712 12 396.933 8.33331 397.004 6.49998" stroke="#FDDE94" stroke-width="2" stroke-linecap="round"/>
<path d="M352.996 6.5C353.067 8.33333 352.288 12 348.6 12C344.912 12 344.133 8.33333 344.204 6.5" stroke="#FDDE94" stroke-width="2" stroke-linecap="round"/>
<path d="M335.404 6.50001C335.333 4.66668 336.112 1.00001 339.8 1.00001C343.488 1.00001 344.267 4.66668 344.196 6.50001" stroke="#FDDE94" stroke-width="2" stroke-linecap="round"/>
<path d="M335.396 6.5C335.467 8.33333 334.688 12 331 12C327.312 12 326.533 8.33333 326.604 6.5" stroke="#FDDE94" stroke-width="2" stroke-linecap="round"/>
<path d="M317.804 6.50001C317.733 4.66668 318.512 1.00001 322.2 1.00001C325.888 1.00001 326.667 4.66668 326.596 6.50001" stroke="#FDDE94" stroke-width="2" stroke-linecap="round"/>
<path d="M317.796 6.49999C317.867 8.33332 317.088 12 313.4 12C309.712 12 308.933 8.33331 309.004 6.49998" stroke="#FDDE94" stroke-width="2" stroke-linecap="round"/>
<path d="M264.996 6.5C265.067 8.33333 264.288 12 260.6 12C256.912 12 256.133 8.33333 256.204 6.5" stroke="#FDDE94" stroke-width="2" stroke-linecap="round"/>
<path d="M247.404 6.50001C247.333 4.66668 248.112 1.00001 251.8 1.00001C255.488 1.00001 256.267 4.66668 256.196 6.50001" stroke="#FDDE94" stroke-width="2" stroke-linecap="round"/>
<path d="M247.396 6.5C247.467 8.33333 246.688 12 243 12C239.312 12 238.533 8.33333 238.604 6.5" stroke="#FDDE94" stroke-width="2" stroke-linecap="round"/>
<path d="M229.804 6.50001C229.733 4.66668 230.512 1.00001 234.2 1.00001C237.888 1.00001 238.667 4.66668 238.596 6.50001" stroke="#FDDE94" stroke-width="2" stroke-linecap="round"/>
<path d="M229.796 6.49999C229.867 8.33332 229.088 12 225.4 12C221.712 12 220.933 8.33331 221.004 6.49998" stroke="#FDDE94" stroke-width="2" stroke-linecap="round"/>
<path d="M176.996 6.5C177.067 8.33333 176.288 12 172.6 12C168.912 12 168.133 8.33333 168.204 6.5" stroke="#FDDE94" stroke-width="2" stroke-linecap="round"/>
<path d="M159.404 6.50001C159.333 4.66668 160.112 1.00001 163.8 1.00001C167.488 1.00001 168.267 4.66668 168.196 6.50001" stroke="#FDDE94" stroke-width="2" stroke-linecap="round"/>
<path d="M159.396 6.5C159.467 8.33333 158.688 12 155 12C151.312 12 150.533 8.33333 150.604 6.5" stroke="#FDDE94" stroke-width="2" stroke-linecap="round"/>
<path d="M141.804 6.50001C141.733 4.66668 142.512 1.00001 146.2 1.00001C149.888 1.00001 150.667 4.66668 150.596 6.50001" stroke="#FDDE94" stroke-width="2" stroke-linecap="round"/>
<path d="M141.796 6.49999C141.867 8.33332 141.088 12 137.4 12C133.712 12 132.933 8.33331 133.004 6.49998" stroke="#FDDE94" stroke-width="2" stroke-linecap="round"/>
<path d="M88.9956 6.5C89.0671 8.33333 88.288 12 84.6 12C80.912 12 80.1329 8.33333 80.2044 6.5" stroke="#FDDE94" stroke-width="2" stroke-linecap="round"/>
<path d="M71.4044 6.50001C71.3329 4.66668 72.1119 1.00001 75.8 1.00001C79.488 1.00001 80.2671 4.66668 80.1956 6.50001" stroke="#FDDE94" stroke-width="2" stroke-linecap="round"/>
<path d="M71.3956 6.5C71.4671 8.33333 70.688 12 67 12C63.312 12 62.5329 8.33333 62.6044 6.5" stroke="#FDDE94" stroke-width="2" stroke-linecap="round"/>
<path d="M53.8044 6.50001C53.7329 4.66668 54.512 1.00001 58.2 1.00001C61.888 1.00001 62.6671 4.66668 62.5956 6.50001" stroke="#FDDE94" stroke-width="2" stroke-linecap="round"/>
<path d="M53.7957 6.49999C53.8671 8.33332 53.0881 12 49.4 12C45.712 12 44.9329 8.33331 45.0044 6.49998" stroke="#FDDE94" stroke-width="2" stroke-linecap="round"/>
<path d="M353.004 6.5C352.933 4.66667 353.712 1 357.4 1C361.088 1 361.867 4.66667 361.796 6.5" stroke="#FDDE94" stroke-width="2" stroke-linecap="round"/>
<path d="M370.596 6.49999C370.667 8.33332 369.888 12 366.2 12C362.512 12 361.733 8.33332 361.804 6.49998" stroke="#FDDE94" stroke-width="2" stroke-linecap="round"/>
<path d="M370.604 6.5C370.533 4.66667 371.312 1 375 1C378.688 1 379.467 4.66667 379.396 6.5" stroke="#FDDE94" stroke-width="2" stroke-linecap="round"/>
<path d="M388.196 6.49999C388.267 8.33332 387.488 12 383.8 12C380.112 12 379.333 8.33332 379.404 6.49999" stroke="#FDDE94" stroke-width="2" stroke-linecap="round"/>
<path d="M388.204 6.50001C388.133 4.66668 388.912 1.00001 392.6 1.00001C396.288 1.00002 397.067 4.66668 396.996 6.50002" stroke="#FDDE94" stroke-width="2" stroke-linecap="round"/>
<path d="M265.004 6.5C264.933 4.66667 265.712 1 269.4 1C273.088 1 273.867 4.66667 273.796 6.5" stroke="#FDDE94" stroke-width="2" stroke-linecap="round"/>
<path d="M282.596 6.49999C282.667 8.33332 281.888 12 278.2 12C274.512 12 273.733 8.33332 273.804 6.49998" stroke="#FDDE94" stroke-width="2" stroke-linecap="round"/>
<path d="M282.604 6.5C282.533 4.66667 283.312 1 287 1C290.688 1 291.467 4.66667 291.396 6.5" stroke="#FDDE94" stroke-width="2" stroke-linecap="round"/>
<path d="M300.196 6.49999C300.267 8.33332 299.488 12 295.8 12C292.112 12 291.333 8.33332 291.404 6.49999" stroke="#FDDE94" stroke-width="2" stroke-linecap="round"/>
<path d="M300.204 6.50001C300.133 4.66668 300.912 1.00001 304.6 1.00001C308.288 1.00002 309.067 4.66668 308.996 6.50002" stroke="#FDDE94" stroke-width="2" stroke-linecap="round"/>
<path d="M177.004 6.5C176.933 4.66667 177.712 1 181.4 1C185.088 1 185.867 4.66667 185.796 6.5" stroke="#FDDE94" stroke-width="2" stroke-linecap="round"/>
<path d="M194.596 6.49999C194.667 8.33332 193.888 12 190.2 12C186.512 12 185.733 8.33332 185.804 6.49998" stroke="#FDDE94" stroke-width="2" stroke-linecap="round"/>
<path d="M194.604 6.5C194.533 4.66667 195.312 1 199 1C202.688 1 203.467 4.66667 203.396 6.5" stroke="#FDDE94" stroke-width="2" stroke-linecap="round"/>
<path d="M212.196 6.49999C212.267 8.33332 211.488 12 207.8 12C204.112 12 203.333 8.33332 203.404 6.49999" stroke="#FDDE94" stroke-width="2" stroke-linecap="round"/>
<path d="M212.204 6.50001C212.133 4.66668 212.912 1.00001 216.6 1.00001C220.288 1.00002 221.067 4.66668 220.996 6.50002" stroke="#FDDE94" stroke-width="2" stroke-linecap="round"/>
<path d="M89.0044 6.5C88.9329 4.66667 89.712 1 93.4 1C97.088 1 97.8671 4.66667 97.7956 6.5" stroke="#FDDE94" stroke-width="2" stroke-linecap="round"/>
<path d="M106.596 6.49999C106.667 8.33332 105.888 12 102.2 12C98.512 12 97.7329 8.33332 97.8044 6.49998" stroke="#FDDE94" stroke-width="2" stroke-linecap="round"/>
<path d="M106.604 6.5C106.533 4.66667 107.312 1 111 1C114.688 1 115.467 4.66667 115.396 6.5" stroke="#FDDE94" stroke-width="2" stroke-linecap="round"/>
<path d="M124.196 6.49999C124.267 8.33332 123.488 12 119.8 12C116.112 12 115.333 8.33332 115.404 6.49999" stroke="#FDDE94" stroke-width="2" stroke-linecap="round"/>
<path d="M124.204 6.50001C124.133 4.66668 124.912 1.00001 128.6 1.00001C132.288 1.00002 133.067 4.66668 132.996 6.50002" stroke="#FDDE94" stroke-width="2" stroke-linecap="round"/>
<path d="M1.00436 6.5C0.932889 4.66667 1.71195 1 5.4 1C9.08804 1 9.86711 4.66667 9.79564 6.5" stroke="#FDDE94" stroke-width="2" stroke-linecap="round"/>
<path d="M18.5956 6.49999C18.6671 8.33332 17.8881 12 14.2 12C10.512 12 9.73289 8.33332 9.80437 6.49998" stroke="#FDDE94" stroke-width="2" stroke-linecap="round"/>
<path d="M18.6044 6.5C18.5329 4.66667 19.312 1 23 1C26.688 1 27.4671 4.66667 27.3956 6.5" stroke="#FDDE94" stroke-width="2" stroke-linecap="round"/>
<path d="M36.1956 6.49999C36.2671 8.33332 35.488 12 31.8 12C28.112 12 27.3329 8.33332 27.4044 6.49999" stroke="#FDDE94" stroke-width="2" stroke-linecap="round"/>
<path d="M36.2043 6.50001C36.1329 4.66668 36.9119 1.00001 40.6 1.00001C44.288 1.00002 45.0671 4.66668 44.9956 6.50002" stroke="#FDDE94" stroke-width="2" stroke-linecap="round"/>
</svg>
