<svg width="90" height="24" viewBox="0 0 90 24" fill="none" xmlns="http://www.w3.org/2000/svg">
<path d="M16 22C11.5549 18.7326 6.43719 16.0932 2.32615 12.3944C0.838833 11.0563 4.86686 9.38987 5.81061 8.91111C9.39871 7.09087 13.0886 5.91046 16 3" stroke="black" stroke-width="3" stroke-linecap="round"/>
<path d="M16.0882 4C16.0882 7.82293 15.8898 11.723 16.0882 15.5385C16.2006 17.7008 17 19.9495 17 22" stroke="black" stroke-width="3" stroke-linecap="round"/>
<path d="M15.0498 12.3555C21.7496 12.3555 30.6778 13.8056 36.9337 10.962C41.1118 9.06284 51.3791 5.6836 42.1983 2.85873C39.6545 2.07602 36.4176 1.15448 36.4176 4.92325C36.4176 8.53936 40.421 10.1549 43.2821 11.4265C70.5 10.962 77 10.962 88 7.5" stroke="black" stroke-width="3" stroke-linecap="round"/>
<path d="M2 12C2.9989 11.6883 4.11401 11.1597 4.76389 10.3785C4.81315 10.3193 4.61109 10.4327 4.53472 10.4599C4.05903 10.6291 3.60935 10.8185 3.17361 11.0609C3.17027 11.0628 2.79796 11.2703 2.88889 11.2675C3.28608 11.2551 3.73204 11.0037 4.09028 10.8731C5.02952 10.5306 5.88935 10.152 6.62847 9.52076C6.90466 9.28487 7.12983 9.02137 7.40278 8.78825C7.95413 8.31735 8.7677 8.0369 9.45139 7.7615C10.0688 7.51278 10.7574 7.35864 11.3542 7.07282C12.2595 6.63919 13.0484 6.04272 13.8889 5.52016C14.0961 5.39134 14.3655 5.09538 14.625 5.06939C14.9705 5.03478 15 4.84448 15 5.29478" stroke="black" stroke-width="3" stroke-linecap="round"/>
<path d="M14.3427 5C14.3427 6.44138 14.4927 7.86883 14.5141 9.30641C14.5256 10.0788 14.5008 10.8517 14.5173 11.624C14.5349 12.4484 14.6284 13.2643 14.6284 14.0899C14.6284 15.7888 14.9142 17.4604 14.9142 19.1538C14.9142 19.3653 14.9325 19.8218 15.1142 19.9693C15.1592 20.0058 15.2295 20.1679 15.2571 20.2272C15.3085 20.3378 15.3348 20.4582 15.3936 20.5656C15.4065 20.5893 15.3144 20.5047 15.2793 20.4882C14.7293 20.2305 14.1385 19.861 13.6251 19.5631C13.3903 19.4269 13.0974 19.2331 12.9012 19.0538C12.7992 18.9606 12.7436 18.8264 12.6345 18.7347C12.19 18.3612 11.7235 18.0562 11.2566 17.7194C11.0112 17.5424 10.6697 17.4827 10.3994 17.3455C10.0495 17.1678 9.71741 16.9505 9.37068 16.7653C8.63524 16.3723 8.09763 15.6215 7.37681 15.189C6.87102 14.8856 6.42746 14.4904 5.94172 14.1479C5.5742 13.8888 4.97458 13.6851 4.74159 13.2711C4.576 12.9769 3.62443 12.8459 4.16375 12.3879C5.07251 11.6163 6.06682 10.887 7.08471 10.267C7.81153 9.82423 8.4273 9.23175 9.12939 8.75199C9.68539 8.37205 10.3031 8.09886 10.8566 7.71407C11.6531 7.16027 12.3946 6.44517 13.2568 5.99924C13.3827 5.93415 13.6808 5.6547 13.6251 5.7865C13.5835 5.88505 13.5806 6.01032 13.5712 6.11528C13.5032 6.87438 13.5154 7.67461 13.6378 8.42643C13.8132 9.50297 14.2897 10.5535 14.7491 11.5305C15.1519 12.3875 15.7256 13.2157 15.7682 14.1898C15.808 15.0977 15.8041 16.035 15.6285 16.9264C15.5131 17.5124 15.7474 18.7063 14.9142 18.7509C14.6702 18.7639 14.4175 18.7635 14.203 18.6284C13.9381 18.4614 13.5734 18.2583 13.3394 18.0546C12.0827 16.9611 10.7799 15.7462 9.32623 14.9215C8.66463 14.5461 7.97693 14.2684 7.29743 13.9319C6.94905 13.7594 6.55336 13.6376 6.24017 13.4001C6.02593 13.2376 5.84584 13.0292 5.63693 12.8586C5.44577 12.7025 5.08904 12.554 4.97019 12.3428C4.83341 12.0998 5.70593 11.6832 5.856 11.5885C6.98914 10.8741 8.24556 10.4009 9.38973 9.71255C9.80273 9.46408 10.2672 9.20968 10.628 8.88415C11.2414 8.33056 11.9524 7.9221 12.5996 7.41107C12.6464 7.37415 12.7806 7.2671 12.8441 7.28859C12.9153 7.3127 12.8244 8.79246 12.8314 8.88415C12.8974 9.74516 13.0989 10.5912 13.2441 11.4403C13.4085 12.4014 13.1448 13.4205 13.3267 14.3671C13.3673 14.5782 13.5111 14.7782 13.5394 14.9795C13.5767 15.2447 13.5294 15.5243 13.5426 15.7918C13.5485 15.9112 13.6734 16.1325 13.7458 16.227C13.917 16.4504 13.9796 16.6702 14.0823 16.9458C14.2438 17.3787 14.4174 17.8068 14.5903 18.2351C14.593 18.2417 14.7935 18.6761 14.7935 18.6026C14.7935 18.5307 14.6353 18.3839 14.584 18.3318C14.372 18.1166 14.0946 17.9372 13.8188 17.8193C12.9656 17.4546 12.0838 17.186 11.2598 16.7491C10.8391 16.5261 10.377 16.3553 9.98662 16.0819C9.67156 15.8613 9.3697 15.6258 9.03096 15.4437C8.8106 15.3252 8.67571 15.251 8.57059 15.0375C8.32731 14.5436 8.02354 14.1202 7.71335 13.6741C7.57853 13.4802 7.3377 13.2637 7.17043 13.0939C6.98899 12.9096 7.20539 12.6088 7.07201 12.4395C7.01058 12.3616 7.00475 12.2829 6.88469 12.2558C6.84803 12.2475 6.63706 12.3167 6.69737 12.3557C6.80587 12.4258 7.17812 12.2107 7.25298 12.1752C7.96884 11.8354 8.66199 11.4314 9.36433 11.0631C10.0103 10.7245 10.7883 10.3492 11.3138 9.8157C11.4018 9.72631 11.4948 9.63193 11.5709 9.52882C11.8119 9.20257 11.8144 9.80886 11.8408 9.95108C12.1242 11.4749 12.5328 13.0146 13.0854 14.4573C13.2601 14.9134 13.51 15.6611 13.368 16.1657C13.3326 16.2913 13.1542 16.2075 13.1044 16.1593C12.5662 15.6372 11.9917 15.0894 11.3868 14.6507C10.9732 14.3508 10.3487 14.101 9.85645 13.99C9.75986 13.9682 9.65444 13.8581 9.57388 13.8062C9.28986 13.6235 8.99674 13.4503 8.72299 13.2518C8.56994 13.1408 8.54049 13.0267 8.44359 12.9037C8.33174 12.7617 8.34549 12.7303 8.49757 12.62C9.06298 12.21 9.66048 11.8445 10.2724 11.5112C10.4605 11.4087 10.6656 11.3747 10.8312 11.2372C10.9624 11.1282 11.16 11.0044 11.3138 10.931C11.4554 10.8633 11.6266 12.2211 11.644 12.3074C11.7573 12.8707 11.978 13.4001 12.2091 13.9223C12.3465 14.2328 12.5866 14.5658 12.6726 14.8957C12.7386 15.1488 12.2317 14.7489 12.2123 14.7313C11.8316 14.3878 11.4499 14.042 11.0344 13.7418C10.9122 13.6535 10.4955 13.4895 10.4597 13.3259C10.4012 13.0585 10.3437 12.6812 10.5454 12.5137C10.6399 12.4352 10.9995 12.2267 10.6851 12.2526C10.4159 12.2747 10.1406 12.5642 9.91995 12.7135C9.82713 12.7763 9.74279 12.9243 9.79613 13.0326C10.1695 13.7907 10.8749 14.4328 11.3741 15.1085C11.906 15.8285 12.3272 16.6276 12.9076 17.3068C13.1481 17.5882 13.4341 17.7892 13.7013 18.0417C13.873 18.204 14.0081 18.3058 14.1014 18.5188C14.2316 18.8162 14.6193 19.0003 14.7872 19.273C14.8853 19.4324 15.0739 19.5936 15.0856 19.7952C15.0972 19.9956 15.3714 20.0287 15.3714 20.2884C15.3714 20.509 15.5428 20.7338 15.5428 20.9846C15.5428 21.21 15.6547 21.3458 15.7428 21.5068C15.8194 21.6467 15.8857 22.1246 15.8857 21.9645C15.8857 21.9219 15.9117 21.6777 15.8413 21.6777C15.831 21.6777 15.9814 21.9717 16 22" stroke="black" stroke-width="3" stroke-linecap="round"/>
</svg>
