<svg width="1142" height="847" viewBox="0 0 1142 847" fill="none" xmlns="http://www.w3.org/2000/svg">
<g clip-path="url(#clip0_222_1015)">
<path d="M1210.66 16.0549L0.00436401 20.6149" stroke="#E5E5E5"/>
<path d="M1210.66 150.868L0.00134277 152.401" stroke="#E5E5E5"/>
<path d="M1210.67 279.106L0.00881958 286.89" stroke="#E5E5E5"/>
<path d="M1210.66 407.342L0.00341797 411.127" stroke="#E5E5E5"/>
<path d="M1210.66 542.156L0.000488281 542.897" stroke="#E5E5E5"/>
<path d="M1210.66 670.392L0.00164795 672.256" stroke="#E5E5E5"/>
<path d="M1080.24 -336.887V846.855" stroke="#E5E5E5"/>
<path d="M948.703 -336.887V846.855" stroke="#E5E5E5"/>
<path d="M817.169 -336.887V846.855" stroke="#E5E5E5"/>
<path d="M685.635 -336.887V846.855" stroke="#E5E5E5"/>
<path d="M554.1 -336.887V846.855" stroke="#E5E5E5"/>
<path d="M422.566 -336.887V846.855" stroke="#E5E5E5"/>
<path d="M1210.68 801.596H0.00012207" stroke="#E5E5E5"/>
<path d="M291.032 -336.887V846.855" stroke="#E5E5E5"/>
<path d="M159.497 -336.887L159.497 846.855" stroke="#E5E5E5"/>
<path d="M27.9626 -336.887L27.9624 846.855" stroke="#E5E5E5"/>
</g>
<defs>
<clipPath id="clip0_222_1015">
<rect width="1204" height="948" fill="white" transform="translate(0 -101)"/>
</clipPath>
</defs>
</svg>
