<svg width="125" height="122" viewBox="0 0 125 122" fill="none" xmlns="http://www.w3.org/2000/svg">
<rect y="43.5167" width="87.0333" height="87.0333" transform="rotate(-30 0 43.5167)" fill="#FDDE94"/>
<path d="M6.47217 27.2666C15.681 56.9394 29.8387 84.6394 44.8822 111.718C45.4719 112.779 49.2393 123.648 51.623 119.476C54.6732 114.138 60.2659 110.831 65.2319 107.521C82.2155 96.1982 100.712 85.0654 119.54 76.9961C121.431 76.1857 124.195 76.0254 122.211 73.4349C116.752 66.3078 110.278 59.6211 104.278 52.9581C94.1803 41.7455 84.2057 30.3846 73.8805 19.3811C70.5286 15.809 66.0087 9.21312 61.4163 6.91691C60.319 6.36826 57.8585 8.1316 56.9648 8.57033C50.2666 11.8585 43.3062 14.0295 36.3608 16.7102C27.3722 20.1795 17.1118 24.2361 8.76151 28.4113" stroke="black" stroke-width="3" stroke-linecap="round"/>
<path d="M25.3221 49.4185C38.5092 42.1656 51.9306 36.81 65.8762 32.1615" stroke="black" stroke-width="3" stroke-linecap="round"/>
<path d="M35.6764 64.9499C46.7936 62.0888 56.4779 59.0064 66.3556 53.2534C68.9498 51.7425 77.5069 49.4185 74.5048 49.4185" stroke="black" stroke-width="3" stroke-linecap="round"/>
<path d="M51.2078 83.0698C56.7768 83.0698 62.4485 83.5527 67.602 81.3441" stroke="black" stroke-width="3" stroke-linecap="round"/>
</svg>
