<svg width="122" height="130" viewBox="0 0 122 130" fill="none" xmlns="http://www.w3.org/2000/svg">
<rect x="40.395" y="30.651" width="80.5572" height="87.3799" transform="rotate(8.81793 40.395 30.651)" fill="#FDDE94"/>
<path d="M76.4494 37.7453C87.77 37.7453 99.0906 37.7453 110.411 37.7453C120.896 37.7453 121.427 35.3258 118.866 44.8385C111.793 71.1096 113.082 98.7178 106.685 125.014C105.232 130.99 94.4584 125.036 88.9164 124.154C70.492 121.223 51.4982 121.126 33.2449 117.133C28.7644 116.153 31.6625 110.21 32.3135 106.385C33.7155 98.1487 33.8898 88.7446 33.8898 80.3049" stroke="black" stroke-width="3" stroke-linecap="round"/>
<path d="M72.2035 53.9198H101.418" stroke="black" stroke-width="3" stroke-linecap="round"/>
<path d="M72.2035 75.622H106.426" stroke="black" stroke-width="3" stroke-linecap="round"/>
<path d="M46.3276 97.3243H98.0792" stroke="black" stroke-width="3" stroke-linecap="round"/>
<rect x="12.5276" y="0.222839" width="70.3034" height="74.8832" transform="rotate(8.81793 12.5276 0.222839)" fill="#FDDE94"/>
<path d="M11.965 8.08249C10.0602 29.7973 4.83827 50.8287 2.22073 72.4235C1.70894 76.6458 0.85949 77.8109 4.6568 77.0807C16.8473 74.7364 31.48 77.2245 43.419 79.7317C45.7501 80.2212 64.2125 88.4242 67.1349 85.1771C68.6948 83.4438 67.5421 73.9181 67.6365 72.4235C68.7105 55.4177 73.4784 38.6112 80.1751 22.9855C81.5774 19.7134 90.8918 6.7928 86.6235 6.7928C70.1878 6.7928 53.5911 7.51062 37.1856 6.5062C31.8859 6.18174 24.5269 2.74308 19.1299 4.28508C16.7839 4.95539 16.5787 6.7928 13.2547 6.7928" stroke="black" stroke-width="3" stroke-linecap="round"/>
<path d="M21.2866 23.0358H55.5094" stroke="black" stroke-width="3" stroke-linecap="round"/>
<path d="M23.7907 34.7216H44.6583" stroke="black" stroke-width="3" stroke-linecap="round"/>
<path d="M28.7989 48.9116H42.9889" stroke="black" stroke-width="3" stroke-linecap="round"/>
</svg>
